<svg width="119" height="145" viewBox="0 0 119 145" fill="none" xmlns="http://www.w3.org/2000/svg">
<path d="M110.681 0.999882H1L1 53.9225L1.00161 53.9902C1.00482 54.1518 1.09229 58.046 2.11651 64.3558C3.41245 72.339 5.54481 80.2296 8.45184 87.8043C12.5339 98.446 18.0328 108.09 24.7971 116.467C33.3012 127.002 43.8122 135.532 56.0382 141.821L59.5449 143.625L63.052 141.821C75.2789 135.532 85.7903 127.002 94.2943 116.467C101.058 108.088 106.558 98.4426 110.64 87.8012C113.547 80.2219 115.678 72.3298 116.974 64.344C118.002 58.0082 118.089 53.9965 118.09 53.9579L118.091 53.8933V53.8287V8.09311V0.999882H110.681Z" fill="#231F20" stroke="white"/>
<path d="M7.3584 7.09151L7.3584 54.1101C7.36162 54.2504 7.71631 68.4154 14.3446 85.7547C18.1636 95.7443 23.296 104.783 29.6004 112.623C37.4854 122.427 47.233 130.367 58.5679 136.22L59.5236 136.714L60.4787 136.22C71.8151 130.367 81.5617 122.427 89.4482 112.622C95.7533 104.782 100.886 95.7419 104.704 85.7516C111.345 68.3753 111.686 54.226 111.689 54.0826V54.066V54.0487V7.09151H7.3584Z" fill="#CAC9C9" stroke="white"/>
<path d="M97.1998 43.5199C97.1998 43.5199 98.782 50.3295 98.782 53.5159C98.782 56.6992 98.1498 59.1195 98.1498 59.1195C98.1498 59.1195 96.8483 64.0344 94.8256 67.3024C93.8558 68.8664 93.5587 71.2385 93.5587 71.2385C93.5587 71.2385 93.2681 70.1548 93.2261 68.7048C93.1816 67.167 93.1717 64.8256 93.1717 64.8256L93.0861 63.3644C93.0861 63.3644 92.0069 67.7581 92.2958 70.3318C92.4506 71.6973 93.4006 76.6955 93.8756 78.0562C94.3498 79.42 94.6445 84.2335 94.1934 86.6919C93.6393 89.7025 92.9256 90.9357 92.9256 90.9357C92.9256 90.9357 91.3475 87.4538 90.0764 85.6324C88.8119 83.8197 85.0135 80.3347 85.0135 80.3347C85.0135 80.3347 85.9627 84.2705 87.3902 85.7855C87.3902 85.7855 84.4117 84.6356 83.5366 84.2255C82.6416 83.8025 76.6041 80.9855 73.6591 77.2449C70.7144 73.5029 69.2824 67.541 69.2824 67.541C69.2824 67.541 65.7396 72.0004 58.9947 72.2252C58.9947 72.2252 55.7683 76.5199 58.6875 81.8448C61.6091 87.1678 67.0613 101.566 66.9424 109.457C66.8292 117.109 64.8511 128.642 58.2663 135.579C58.2663 135.579 23.0828 120.902 10.9434 72.099C10.9434 72.099 20.2932 60.1812 23.1401 53.0588C25.9905 45.9411 29.786 40.9427 24.8853 32.1558C24.8853 32.1558 25.9905 32.0053 28.2071 35.3359C28.2071 35.3359 27.4183 27.9109 26.1506 26.7027C26.1506 26.7027 28.4161 28.2096 29.3133 30.7892C29.3133 30.7892 28.409 27.1961 30.0964 24.2074C31.9487 20.9209 32.2911 15.8871 32.3114 15.0052C32.3451 13.4525 32.3185 10.8738 32.0039 10.1424C32.0039 10.1424 36.1892 13.2752 38.6968 17.4106C41.344 21.7753 40.6478 26.0131 40.5508 27.2536C40.4533 28.4957 41.2652 33.8724 45.6155 33.9725C50.1658 34.082 51.1129 31.8098 52.3628 30.0491C53.6099 28.2876 55.9005 25.6419 60.3308 24.8829C60.3308 24.8829 57.1665 28.5201 57.1665 30.1886L67.2935 27.1527C67.2935 27.1527 65.55 28.8236 65.394 29.7315C65.394 29.7315 74.5717 29.276 77.7382 32.1558C77.7382 32.1558 73.1465 32.3056 70.1404 33.8235C67.1327 35.3359 66.2487 37.9131 66.2487 37.9131C66.2487 37.9131 75.3644 36.8539 80.2658 37.0044C85.1732 37.1526 87.2642 36.3645 89.1297 35.1838C89.1297 35.1838 88.8769 37.0044 87.4552 37.6097C87.4552 37.6097 95.1426 38.8227 96.8829 40.1869C96.8829 40.1869 97.9918 42.0036 97.1998 43.5199Z" fill="#231F20" stroke="white"/>
<path d="M95.3187 40.985C95.3187 40.985 93.2277 40.1409 90.1496 40.7935L88.8242 41.2419C88.8242 41.2419 91.2569 44.0619 92.9264 42.6732C94.5885 41.2805 95.3187 40.985 95.3187 40.985Z" fill="#CAC9C9" stroke="white"/>
<path d="M72.0792 31.3425C72.0792 31.3425 66.5037 31.2291 62.6426 33.0449C62.6426 33.0449 63.8931 31.1731 66.0866 30.7719C68.2827 30.3794 71.0106 30.9437 72.0792 31.3425Z" fill="#CAC9C9" stroke="white"/>
<path d="M62.7036 30.6549C62.7036 30.6549 58.9653 34.6926 54.8145 34.4096L54.9318 33.7799C54.9318 33.7799 60.688 30.4855 62.7036 30.6549Z" fill="#CAC9C9" stroke="white"/>
<path d="M55.9407 29.7493C55.9407 29.7493 55.2293 31.2823 55.3467 31.964C55.4658 32.6457 54.3386 33.8358 53.3915 34.4088C52.4391 34.9755 54.1601 33.3283 54.2807 32.6457C54.3981 31.964 56.0596 28.724 55.9407 29.7493Z" fill="#CAC9C9" stroke="white"/>
<path d="M58.5729 39.3089C58.5729 39.3089 57.4869 39.2608 57.1306 40.3075C56.7019 41.548 57.5091 43.0061 58.9379 42.943C58.9379 42.943 61.0319 43.1881 61.6439 41.2651C61.6439 41.2651 60.5467 42.6522 59.007 42.1423C57.7689 41.7324 57.5545 40.1562 58.5729 39.3089Z" fill="white" stroke="white"/>
<path d="M59.8887 39.4321C59.8887 39.4321 60.1353 39.6938 60.2437 40.0019C60.3363 40.2612 60.3604 40.4756 60.3604 40.4756L61.0447 40.1493C61.0447 40.1493 60.7704 39.6938 60.497 39.4967C60.2247 39.3044 59.8887 39.4321 59.8887 39.4321Z" fill="white" stroke="white"/>
<path d="M59.585 40.1236C59.585 40.5098 59.9037 40.8164 60.3031 40.8164C60.7028 40.8164 61.0244 40.5098 61.0244 40.1236C61.0244 39.7493 60.7028 39.4356 60.3031 39.4356C59.9037 39.4356 59.585 39.7493 59.585 40.1236Z" fill="white" stroke="white"/>
<path d="M36.8512 60.3789C36.8512 60.3789 33.1284 56.9939 32.1289 52.4944C31.108 47.9413 32.4441 41.2808 32.1289 41.8411C32.6836 40.8512 24.9788 52.9917 36.8512 60.3789Z" fill="#C4122E" stroke="white"/>
<path d="M32.8126 26.4769C33.8551 24.0573 34.8719 21.328 34.0802 16.7009C34.0802 16.7009 33.9972 21.9128 32.7843 24.4687C31.3848 27.4164 31.0597 30.4578 31.5677 33.4598C32.0751 36.4642 32.6482 37.5684 32.6482 37.5684C32.6482 37.5684 30.9754 30.7415 32.8126 26.4769Z" fill="#C4122E" stroke="white"/>
<path d="M52.5646 34.5581C48.6527 34.3012 48.1439 29.4234 48.2822 28.3074C48.4234 27.1882 49.2604 23.1411 47.1033 19.1216C45.0575 15.3181 41.4435 12.3657 41.4435 12.3657C41.6922 13.0341 41.5796 15.3615 41.4677 16.7635C41.4403 17.0993 41.3298 18.0009 41.0645 19.191C42.0903 21.6508 42.2636 23.0135 41.9414 25.0145C41.6176 27.0109 41.5105 35.3494 49.2813 33.7329C49.2813 33.7329 49.089 35.548 52.5646 34.5581Z" fill="#231F20" stroke="white"/>
<path d="M65.2744 40.1051C65.2744 40.1051 63.8023 40.5086 60.8126 39.8143C58.985 39.3895 57.8602 38.889 55.1847 39.045C51.6554 39.2492 50.876 38.3877 50.876 38.3877C53.5794 38.7109 54.2489 38.1852 56.71 38.3735C59.9347 38.6108 61.7796 40.3778 65.2744 40.1051Z" fill="#CAC9C9" stroke="white"/>
<path d="M39.6351 62.0185C37.2365 72.7211 43.9532 79.9975 51.3987 89.1626C59.0312 98.5621 62.6769 105.187 62.274 112.539C61.7878 121.399 56.2898 130.11 56.2898 130.11C56.2898 130.11 60.4998 120.65 60.2812 111.391C60.0972 103.697 56.338 96.936 49.2489 88.5392C45.3697 83.9443 34.3558 75.438 39.6351 62.0185Z" fill="#CAC9C9" stroke="white"/>
<path d="M20.6371 51.8475L24.207 50.4699L23.1479 53.3765C24.0533 58.4687 27.7674 65.9064 37.167 72.9549C43.2833 77.5437 62.193 89.1659 62.193 89.1659C62.193 89.1659 57.624 81.1149 57.551 78.4904C57.551 78.4904 72.8367 88.9609 75.197 95.0625C77.5584 101.172 71.5819 103.286 71.5819 103.286C71.5819 103.286 76.1949 106.476 73.3699 109.118C70.5474 111.77 68.6444 119.724 67.5066 120.254C67.5066 120.254 60.8173 111.221 47.5555 101.382C34.2857 91.5436 16.3146 77.1327 20.0152 52.463L20.6371 51.8475Z" fill="#C4122E" stroke="white"/>
<path d="M58.2581 86.5657C61.3999 88.8023 69.313 94.0111 72.8249 95.8506C59.5493 86.5333 59.904 86.3625 58.4762 85.245C56.1461 83.4258 58.2581 86.5657 58.2581 86.5657Z" fill="#231F20" stroke="white"/>
<path d="M96.5916 45.2471C95.0373 46.4521 94.1186 48.5903 94.1186 48.5903C94.1186 48.5903 92.9752 46.8943 90.9385 46.3772C88.9018 45.8571 87.2998 43.2491 87.2998 43.2491C87.2998 43.2491 87.8423 46.0171 90.1457 47.0606C92.4458 48.1056 93.7465 49.4833 94.075 50.604L93.819 53.1836C93.819 53.1836 94.5903 50.8176 95.0859 48.4272C95.5782 46.032 96.5916 45.2471 96.5916 45.2471Z" fill="#CAC9C9" stroke="white"/>
<path d="M88.791 73.0469C87.8855 68.6906 88.6091 63.7582 89.443 61.8344L90.1049 63.692C90.1049 63.692 91.2237 60.5552 92.0592 58.6298C92.8998 56.7115 93.3583 55.1076 93.3583 55.1076C93.3583 55.1076 91.3381 58.4399 90.4103 60.5552L89.583 58.3752C89.583 58.3752 87.8476 63.3074 87.8674 66.5756C87.8855 69.8436 88.791 73.0469 88.791 73.0469Z" fill="#CAC9C9" stroke="white"/>
<path d="M21.6514 60.2874C22.8466 65.3997 29.2968 74.7819 42.9097 84.8614C49.8621 90.0089 61.8449 97.716 70.6223 100.461C70.6223 100.461 31.6552 81.6703 21.6514 60.2874Z" fill="#CAC9C9" stroke="white"/>
<path d="M27.8165 69.3612C27.8165 69.3612 25.797 75.6325 25.0146 78.4756C25.0146 78.4756 26.6588 74.9428 27.8165 69.3612Z" fill="#231F20" stroke="white"/>
<path d="M35.0154 84.8359C29.7936 79.7481 24.5632 71.9991 21.4385 65.4354C23.2371 72.9319 29.621 82.3022 38.7472 89.9234C43.1503 93.6008 48.3784 97.6532 55.0632 101.719C61.3025 105.581 66.1373 107.644 69.7223 108.637C69.7223 108.637 50.4317 99.8529 35.0154 84.8359Z" fill="#231F20" stroke="white"/>
<path d="M27.6854 69.0106L25.6215 75.6297L25.1025 78.6006L26.2052 76.387L28.3167 69.7017L28.6726 67.2111L27.6854 69.0106Z" fill="#231F20" stroke="white"/>
<path d="M24.549 64.7003L22.855 70.2109L22.4717 72.7539L23.3437 71.2053L25.0812 65.5452L25.4993 62.8836L24.549 64.7003Z" fill="#CAC9C9" stroke="white"/>
<path d="M31.224 72.9134L28.9099 80.3379L28.3535 83.3809L29.4205 81.1917L31.78 73.5537L32.2616 70.7815C32.2616 70.7845 31.224 72.9134 31.224 72.9134Z" fill="#CAC9C9" stroke="white"/>
<path d="M39.7237 80.2072L36.98 88.8058L36.4092 91.7676L37.553 89.404L40.3138 80.8826L40.9569 77.6331L39.7237 80.2072Z" fill="#CAC9C9" stroke="white"/>
<path d="M49.7232 87.7654L46.8396 96.688L46.21 99.6758L47.3934 97.0537L50.2699 88.1493L51.1954 84.2572L49.7232 87.7654Z" fill="#CAC9C9" stroke="white"/>
<path d="M35.3163 76.7704L32.8225 84.7706L32.1797 88.043L33.3852 85.4027L35.9707 77.1876L36.4145 74.5168L35.3163 76.7704Z" fill="#231F20" stroke="white"/>
<path d="M44.6731 84.2029L41.8224 93.139L41.2725 96.0107L42.4568 93.4604L45.2697 84.7074L46.1025 80.9164L44.6731 84.2029Z" fill="#231F20" stroke="white"/>
<path d="M55.3879 91.0667L52.3307 100.423L51.5537 103.992L52.9626 100.829L56.0027 91.4466L56.8848 87.603L55.3879 91.0667Z" fill="#231F20" stroke="white"/>
<path d="M66.7219 97.7974L63.7631 106.832L62.123 112.95L64.3921 107.131L67.3438 98.1317L68.1545 94.5322L66.7219 97.7974Z" fill="#231F20" stroke="white"/>
<path d="M61.1354 94.8028L58.1419 104.049L57.0791 108.564L58.8066 104.443L61.7802 95.24L62.6832 91.2365L61.1354 94.8028Z" fill="#CAC9C9" stroke="white"/>
<path d="M8.36813 8.0558L8.36813 54.0719C8.37103 54.228 8.76624 68.3486 15.2929 85.4216C19.0759 95.3174 24.1587 104.272 30.4004 112.032C38.1983 121.728 47.8362 129.579 59.0473 135.368L59.5239 135.614L59.9989 135.369C71.2102 129.581 80.8491 121.729 88.6491 112.031C94.8917 104.268 99.9743 95.3143 103.756 85.4186C110.289 68.3265 110.677 54.2012 110.68 54.0609V8.0558H8.36813ZM59.5242 137.811L58.0883 137.069C46.6268 131.151 36.7728 123.124 28.801 113.211C22.4335 105.294 17.251 96.1671 13.3972 86.0854C6.7564 68.7135 6.36312 54.7182 6.34993 54.131L6.34961 6.12407H112.699V54.0475C112.685 54.6898 112.299 68.6913 105.652 86.082C101.799 96.164 96.6163 105.291 90.2486 113.211C82.2743 123.124 72.4194 131.152 60.9581 137.069L59.5242 137.811Z" fill="#C4122E" stroke="white"/>
</svg>
