<svg width="177" height="177" viewBox="0 0 177 177" fill="none" xmlns="http://www.w3.org/2000/svg">
<path d="M88.1193 31.7139C66.9808 31.7139 48.5617 43.3811 38.9271 60.6474H137.316C127.674 43.3811 109.252 31.7139 88.1155 31.7139H88.1193ZM31.7944 63.8938V81.0141H54.9391L82.9532 63.8938H31.7944ZM94.6079 63.8938L121.167 81.0141H144.449V63.8938H94.6079ZM88.8853 64.0651L61.1595 81.0142H115.18L88.8853 64.0651ZM31.7997 84.2598V88.4477H32.9463L33.4841 87.0467L33.8645 85.8724L34.7067 88.4477H37.4261L35.2239 90.0424L36.066 92.6124L33.8642 91.0229L31.7994 92.5143L31.7842 102.505L31.7994 130.208H46.5885L47.4306 127.653L45.2238 126.061H47.9431L48.7853 123.485L49.6275 126.061H52.3517L50.1449 127.653L50.982 130.208H53.9601V84.2594L31.7997 84.2598ZM57.1961 84.2598V130.203H66.6022V84.2598H57.1961ZM69.8391 84.2598V130.203H79.8692V84.2598H69.8391ZM83.1108 84.2598V130.203H93.1354V84.2598H83.1108ZM109.634 84.2598V130.203H119.349V84.2598H109.634ZM122.586 84.2598V130.209H144.442V102.622L142.397 104.094L143.245 106.669L141.043 105.076L138.836 106.669L139.678 104.094L137.476 102.506H140.196L141.043 99.9308L141.88 102.506H144.442V92.4065L142.529 91.0256L140.322 92.6131L141.165 90.0429L138.963 88.4503H141.682L142.529 85.8749L143.367 88.4503H144.442V84.2623H122.586L122.586 84.2598ZM96.3668 84.2649V130.208H106.397V84.2649H96.3668ZM31.8005 89.5266V92.1978L31.978 91.4267L32.4448 89.9954L31.8005 89.5266ZM144.439 89.6374L143.881 90.0406L144.439 91.7441V89.6374ZM48.7853 128.634L46.6088 130.207H50.9618L48.7853 128.634ZM31.7997 133.452V145.649H53.96V133.452H31.7997ZM57.1961 133.452V145.649H86.2366L86.8504 143.774L84.6486 142.182H87.368L88.2102 139.606L89.0523 142.182H91.7766L89.5748 143.774L90.1886 145.649H119.357V133.452H115.612L116.237 135.362H118.961L116.749 136.95L117.596 139.525L115.394 137.933L113.192 139.525L114.035 136.95L111.833 135.362H114.557L115.181 133.452H61.2174L61.8414 135.362H64.5657L62.3588 136.95L63.201 139.525L60.9992 137.933L58.7974 139.525L59.6395 136.95L57.4377 135.362H60.162L60.7809 133.452H57.1992H57.1961ZM122.586 133.452V145.649H144.442V133.452H122.586ZM88.2101 144.757L86.9672 145.649H89.4632L88.2101 144.757Z" fill="#E57200" fill-opacity="0.66"/>
<path d="M35.3647 99.8398L34.5192 102.411H31.7842L33.9998 103.996L33.1492 106.567L35.3648 104.977L37.5753 106.567L36.7349 103.996L38.9404 102.411H36.2102L35.3647 99.8398ZM40.7689 112.841L39.9183 115.407H37.1833L39.404 116.992L38.5534 119.558L40.769 117.973L42.9795 119.558L42.134 116.992L44.3496 115.407H41.6146L40.7689 112.841ZM136.069 112.841L135.228 115.407H132.493L134.704 116.992L133.858 119.558L136.069 117.973L138.285 119.558L137.434 116.992L139.655 115.407H136.92L136.069 112.841ZM127.986 123.357L127.14 125.928H124.41L126.621 127.518L125.78 130.069L127.986 128.499L130.176 130.069H130.191L129.346 127.518L131.567 125.928H128.831L127.986 123.357ZM74.2101 137.752L73.3646 140.318H70.6295L72.8452 141.908L71.9946 144.474L74.2102 142.889L76.4207 144.474L75.5804 141.908L77.7909 140.318H75.0558L74.2101 137.752ZM102.234 137.752L101.393 140.318H98.6583L100.869 141.908L100.023 144.474L102.234 142.889L104.444 144.474L103.599 141.908L105.814 140.318H103.079L102.234 137.752Z" fill="white"/>
</svg>
