<svg width="34" height="75" viewBox="0 0 34 75" fill="none" xmlns="http://www.w3.org/2000/svg">
<path d="M0.5355 41.2333C0.3927 40.6621 2.37999 36.3543 3.39148 34.2719H14.1014C18.3259 36.8303 26.8106 42.34 26.9534 43.9108C27.1319 45.8743 30.1663 51.4078 31.2373 53.1928C32.3083 54.9777 33.5578 57.8337 33.5578 59.6187C33.5578 61.0467 32.6058 63.4267 32.1298 64.4382C32.4868 68.4842 32.9866 67.1473 32.1298 69.4321C31.0588 72.2881 23.5619 73.3591 20.3489 74.0731C17.7785 74.6443 13.2089 73.8351 11.2454 73.3591L7.31846 72.2881C5.5 71 5.8568 71.714 5 71C3.92901 70.1075 3.39148 70.3287 3.92698 70.1502C4.35538 70.0074 3.03448 61.2847 2.32049 56.9412C1.78499 51.9433 0.678299 41.8045 0.5355 41.2333Z" fill="#D64550"/>
<path d="M18.3904 1.60052H20.4243C23.3827 1.60052 27.0807 5.63146 28.5598 7.64693L27.6674 17.1359C26.8133 17.7344 23.569 17.9202 22.1339 20.7059C21.0826 22.7465 19.4998 23.7114 17.4659 24.7191L15.9867 29.165L13.7679 34.6779L12.6585 38.7681L11.3642 42.5027L8.77561 43.9254L7.85111 47.8377H6.00212V44.9924V41.4357L3.04373 39.8351L2.5 36L1.38858 33.63C1.30145 33.5548 1.29037 33.5079 1.37964 33.6109L1.38858 33.63C1.60226 33.8144 2.27336 34.1689 3.04373 32.8996C4.5 30.5 3.36286 29.3634 2.5 28L3.04373 24.7191C2.48903 24.6006 1.19474 24.1856 0.455145 23.4743C-0.469351 22.5851 0.270246 15.116 0.455145 13.6933C0.640045 12.2706 5.81723 6.04641 6.74172 4.44589C7.48132 3.16547 10.9944 0.948456 12.6585 0H15.9867L18.3904 1.60052Z" fill="#231C35"/>
<path d="M8.92492 57.8337C7.21133 48.9802 11.7809 41.8878 14.2799 39.4483C18.5639 39.4483 21.1819 44.4463 21.9554 46.9453L20.7059 74.5C17.5335 74.0873 13.736 74.3893 11.1084 73.4805C10.8109 66.6975 10.6385 66.6873 8.92492 57.8337Z" fill="#F1F1EB"/>
<path d="M20.7059 38.7343L13.7314 34.3313L15.9752 29.1704L17.1359 25.3469L17.5459 24.4583L19.8134 23.2049L22.2581 20.4193L22.8478 18.9209C23.3833 18.6829 24.7042 18.1355 25.7038 17.8499C25.7519 17.8362 25.8483 17.8499 26.5215 17.5023L26.4178 21.5984V23.2049C25.5848 24.8709 23.776 28.1672 23.2048 28.0244C22.6336 27.8816 21.5389 29.0359 21.0629 29.6309L20.7059 38.7343Z" fill="#F1F1EB"/>
</svg>
