<svg width="603" height="610" viewBox="0 0 603 610" fill="none" xmlns="http://www.w3.org/2000/svg">
<path d="M437.804 395.552C408.835 424.525 397.012 467.829 369.062 484.102C341.111 500.375 297.034 489.617 254.102 473.968C210.858 458.286 169.073 437.746 133.338 404.757C97.8876 372.076 68.4876 326.945 83.0785 293.398C97.6405 260.127 155.91 238.131 195.632 206.112C235.382 173.817 256.615 131.224 291.983 116.566C327.38 101.633 376.941 114.359 412.976 138.471C449.324 162.615 471.891 197.562 493.833 232.443C515.774 267.323 536.494 301.797 524.08 326.664C512.008 351.287 466.46 366.546 437.804 395.552Z" fill="#F8705E"/>
<path d="M334.103 472.876C291.597 474.364 251.963 498.87 219.222 491.437C186.481 484.003 160.633 444.63 139.118 402.355C117.389 359.833 100.207 314.656 96.4326 264.311C92.6555 214.401 102.286 159.322 137.114 144.183C171.725 129.233 231.536 153.787 284.362 157.599C337.405 161.224 383.68 143.918 420.909 157.829C458.356 171.552 486.973 216.302 497.261 260.12C507.763 304.185 500.155 346.693 492.118 388.709C484.082 430.725 475.406 471.567 448.376 481.657C421.778 491.805 376.394 471.143 334.103 472.876Z" fill="#89053D"/>
<path d="M455.614 140.99C472.968 158.941 487.449 186.813 486.989 213.897C486.645 241.139 471.244 267.593 453.775 289.954C436.421 312.314 417.113 330.422 394.013 335.461C370.912 340.658 344.019 332.785 330.802 310.424C317.471 288.064 317.815 251.217 320.459 218.149C323.217 185.081 328.159 155.635 341.376 137.683C354.707 119.732 376.199 113.276 397.116 114.064C417.918 115.008 438.26 123.039 455.614 140.99Z" fill="#FBEECF"/>
<path d="M254.493 297.812C272.467 314.314 287.465 339.936 286.989 364.834C286.632 389.877 270.682 414.196 252.589 434.751C234.615 455.306 214.617 471.953 190.692 476.586C166.766 481.363 138.912 474.125 125.224 453.569C111.416 433.014 111.773 399.141 114.511 368.742C117.368 338.343 122.486 311.274 136.175 294.772C149.982 278.27 172.242 272.335 193.905 273.058C215.45 273.927 236.519 281.309 254.493 297.812Z" fill="#FFD1FF"/>
<path d="M401.5 102.5C419.5 95 437.935 102.021 446.543 119.235" stroke="#89053D" stroke-width="6" stroke-linecap="round"/>
<path d="M442.972 494.163C449.591 494.163 453.066 493.105 458.5 490C460.951 488.6 465.533 482.367 466.777 479.88" stroke="#89053D" stroke-width="8" stroke-linecap="round"/>
<path d="M118 469C118.612 474.506 119.5 485 135.854 483.283" stroke="#FFD1FF" stroke-width="11" stroke-linecap="round"/>
<path d="M514.473 224.234C502.147 224.234 499 214.401 499 204" stroke="#F8705E" stroke-width="9" stroke-linecap="round"/>
<circle cx="72" cy="269" r="6" fill="#FBEECF"/>
<circle cx="283" cy="500" r="6" fill="#FFD1FF"/>
<circle cx="493" cy="451" r="6" fill="#F8705E"/>
<circle cx="206" cy="126" r="6" fill="#F8705E"/>
<path d="M113 147.444C113 137.943 117.488 135.443 125.438 140.706" stroke="#FFD1FF" stroke-width="7" stroke-linecap="round"/>
</svg>
