<svg width="678" height="678" viewBox="0 0 678 678" fill="none" xmlns="http://www.w3.org/2000/svg">
<rect width="678" height="678" rx="339" fill="#FFDED7"/>
<path d="M115 179C115 161.3 129.3 147 147 147H531C548.7 147 563 161.3 563 179C563 196.7 548.7 211 531 211H147C129.3 211 115 196.7 115 179ZM115 339C115 321.3 129.3 307 147 307H531C548.7 307 563 321.3 563 339C563 356.7 548.7 371 531 371H147C129.3 371 115 356.7 115 339ZM563 499C563 516.7 548.7 531 531 531H147C129.3 531 115 516.7 115 499C115 481.3 129.3 467 147 467H531C548.7 467 563 481.3 563 499Z" fill="#242331"/>
</svg>
