<svg width="100" height="491" viewBox="0 0 100 491" fill="none" xmlns="http://www.w3.org/2000/svg">
<path d="M18.5958 91.8795C18.2776 90.6067 22.7058 81.0078 24.9597 76.3674H48.8246C58.2379 82.0684 77.1441 94.3455 77.4623 97.8457C77.8601 102.221 84.6218 114.551 87.0083 118.529C89.3948 122.506 92.179 128.87 92.179 132.847C92.179 136.029 90.0577 141.333 88.997 143.587C89.7925 152.602 90.9062 171.906 88.997 176.997C86.6105 183.361 69.9052 185.748 62.7457 187.339C57.0182 188.612 46.8358 186.808 42.4606 185.748L33.7102 183.361C35.036 180.577 37.2104 174.611 35.3012 173.02C32.9147 171.031 24.9597 156.712 26.153 156.314C27.1076 155.996 24.1643 136.56 22.5733 126.881C21.38 115.744 18.914 93.1523 18.5958 91.8795Z" fill="#D64550"/>
<path d="M58.3816 3.56641H62.9137C69.5058 3.56641 77.746 12.5485 81.0421 17.0395L79.0533 38.1837C77.1502 39.5174 69.921 39.9314 66.7232 46.1386C64.3807 50.6856 60.8536 52.8358 56.3215 55.0813L53.0255 64.988L48.0814 77.2723L45.6093 86.3865L42.7253 94.7081L36.9571 97.8783L34.8971 106.596H30.777V100.256V92.3305L24.1849 88.7641L26.6569 74.8947H20.4768C19.7901 74.1022 19.5704 72.6756 24.1849 73.3096C28.7993 73.9437 26.1076 68.0261 24.1849 64.988V55.0813C22.9488 54.8171 20.0648 53.8925 18.4168 52.3074C16.3567 50.3261 18.0047 33.6828 18.4168 30.5127C18.8288 27.3425 30.365 13.4731 32.425 9.90671C34.0731 7.05358 41.9012 2.11343 45.6093 0H53.0255L58.3816 3.56641Z" fill="#0E0426"/>
<path d="M12.6296 225.92C12.6296 212.5 26.0204 195.559 33.7101 183.361C44.847 192.271 74.6781 193.703 88.2015 193.305L90.1902 301.89L85.4173 360.359L72.6894 423.6C70.1703 424.131 64.7344 425.271 63.1434 425.589C61.5524 425.907 53.1998 424.396 49.2223 423.6L80.2465 299.503L67.6058 347.588L56.3228 392.355C52.6105 406.144 45.4039 434.817 44.4493 436.726C43.2561 439.113 33.7101 433.544 24.9597 434.34C17.9594 434.976 11.1712 429.567 8.6521 426.782L12.6296 324.561C15.5464 304.011 20.5845 261.956 17.4025 258.138C13.4251 253.365 12.6296 232.209 12.6296 225.92Z" fill="#242039"/>
<path d="M7.85661 460.989C10.4022 459.079 10.3977 438.311 10 428.5C15.4094 432 22 435.5 29.335 434V469.341L49.2223 486.047L45.2448 487.638L38.4831 486.047V489.626H35.6989C24.4294 485.251 1.73131 476.183 1.09491 474.91C0.299418 473.319 4.67463 463.375 7.85661 460.989Z" fill="#F1F1F1"/>
<path d="M49.2223 460.989C52.4043 458.443 50.8258 433.902 49.5 422.5C53.6366 425.046 64.227 424.131 69 423.6C69.5303 431.29 70.6211 449.534 71.8939 454.625C73.1667 459.716 90.1902 469.474 98.5429 473.717L96.1564 476.898C94.698 477.429 90.9857 478.41 87.8037 478.092C83.8263 477.694 45.2448 464.171 49.2223 460.989Z" fill="#F1F1F1"/>
<path d="M88.1891 177.68L88.2015 177.395C88.2109 177.489 88.2066 177.584 88.1891 177.68L87.5 193.5C85.5 194.3 69.2572 192.833 61.3858 192L61.1547 196.089L96.1564 282.003C97.0845 284.256 98.0656 290.355 94.5654 296.719C91.0653 303.083 79.3185 299.371 73.8826 296.719V283.991L44.0516 198.873C43.9222 195.924 43.7313 192.212 43.4794 188C40.5301 187.5 35.0265 184.468 34.5 184L43.3263 185.5C42.2431 168.219 40.219 144.004 37.2899 128.87C33.4715 109.142 43.6538 93.338 49.2223 87.9021C58.7682 87.9021 64.6018 99.039 66.3254 104.607L61.6402 187.5C72.8002 185.074 87.6138 180.837 88.1891 177.68Z" fill="#F1F1F1"/>
<path d="M63.5412 86.3111L48 76.5L53 65L55.5863 56.4801L56.5 54.5L61.5525 51.7071L67 45.5L68.3141 42.1612C69.5074 41.6309 72.4507 40.4111 74.6781 39.7747C74.7852 39.7441 75 39.7747 76.5 39L76.2691 48.1274V51.7071C74.4129 55.4194 70.3824 62.7645 69.1096 62.4463C67.8369 62.1281 65.3973 64.7002 64.3367 66.026L63.5412 86.3111Z" fill="#F1F1F1"/>
<path d="M61.6402 187.5C73.1402 185 88.5197 180.577 88.2015 177.395L87.5 193.5C85.5 194.3 69.2572 192.833 61.3858 192M43.3263 185.5C42.2431 168.219 40.219 144.004 37.2899 128.87C33.4715 109.142 43.6538 93.338 49.2223 87.9021C58.7682 87.9021 64.6018 99.039 66.3254 104.607L61.3858 192M43.3263 185.5C43.6551 190.746 43.8972 195.354 44.0516 198.873L73.8826 283.991V296.719C79.3185 299.371 91.0653 303.083 94.5654 296.719C98.0656 290.355 97.0845 284.256 96.1564 282.003L61.1547 196.089L61.3858 192M43.3263 185.5L43.4794 188C40.5301 187.5 35.0265 184.468 34.5 184L43.3263 185.5ZM10 428.5C10.3977 438.311 10.4022 459.079 7.85661 460.989C4.67463 463.375 0.299418 473.319 1.09491 474.91C1.73131 476.183 24.4294 485.251 35.6989 489.626H38.4831V486.047L45.2448 487.638L49.2223 486.047L29.335 469.341V434C22 435.5 15.4094 432 10 428.5ZM49.5 422.5C50.8258 433.902 52.4043 458.443 49.2223 460.989C45.2448 464.171 83.8263 477.694 87.8037 478.092C90.9857 478.41 94.698 477.429 96.1564 476.898L98.5429 473.717C90.1902 469.474 73.1667 459.716 71.8939 454.625C70.6211 449.534 69.5303 431.29 69 423.6C64.227 424.131 53.6366 425.046 49.5 422.5ZM48 76.5L63.5412 86.3111L64.3367 66.026C65.3973 64.7002 67.8369 62.1281 69.1096 62.4463C70.3824 62.7645 74.4129 55.4194 76.2691 51.7071V48.1274L76.5 39C75 39.7747 74.7852 39.7441 74.6781 39.7747C72.4507 40.4111 69.5074 41.6309 68.3141 42.1612L67 45.5L61.5525 51.7071L56.5 54.5L55.5863 56.4801L53 65L48 76.5Z" stroke="black" stroke-opacity="0.2"/>
</svg>
